<svg width="94" height="94" viewBox="0 0 94 94" fill="none" xmlns="http://www.w3.org/2000/svg">
<mask id="mask0_371_1194" style="mask-type:alpha" maskUnits="userSpaceOnUse" x="0" y="0" width="94" height="94">
<rect width="94" height="94" fill="white"/>
</mask>
<g mask="url(#mask0_371_1194)">
<path d="M29.7869 48.5992C24.3908 48.5992 20 52.9505 20 58.2996C20 63.6487 24.3908 68 29.7869 68C35.183 68 39.5738 63.6487 39.5738 58.2996C39.5738 52.9505 35.183 48.5992 29.7869 48.5992Z" fill="white"/>
<path d="M59.2114 48.5992C53.8153 48.5992 49.4246 52.9505 49.4246 58.2981C49.4246 63.6472 53.8153 67.9985 59.2114 67.9985C64.609 67.9985 68.9998 63.6472 68.9998 58.2981C68.9998 52.9505 64.609 48.5992 59.2114 48.5992Z" fill="white"/>
<path d="M42.1683 52.9166C41.6872 52.9166 41.218 52.7484 40.8472 52.4443C37.4007 49.6192 35.6923 48.9889 35.6744 48.983C33.2214 48.1727 31.7409 46.8281 31.2837 44.9875C30.5598 42.0723 32.8729 39.5041 33.3435 39.0185C33.3956 38.9668 33.4448 38.9196 33.4969 38.8753L40.9886 32.583C43.7724 30.4531 45.6788 30.2908 46.8182 30.1948L46.9924 30.1801C49.4842 29.9528 50.7219 30.7971 51.2492 31.3417C51.833 31.8568 53.1839 33.2694 53.7767 35.7358C53.9003 36.248 53.9748 36.8782 54.0612 37.6089L54.0686 37.6679C54.1505 38.3572 54.3531 40.0635 54.648 40.8472C56.5068 41.3963 58.9777 42.121 61.824 42.9535C62.9202 43.2738 63.5487 44.4192 63.2255 45.5055C63.0691 46.0325 62.7131 46.4664 62.2261 46.7292C61.7391 46.9904 61.1791 47.0495 60.6488 46.893C55.0055 45.2428 52.7773 44.5801 52.755 44.5742C52.4481 44.4827 52.1622 44.3203 51.9313 44.1033C50.497 42.769 50.2051 40.3055 49.9474 38.1314L49.9459 38.1137C49.8789 37.5528 49.8104 36.9712 49.7419 36.6864L51.2298 36.338C51.3177 36.7085 51.3862 37.2782 51.4636 37.938L51.4651 37.9543C51.693 39.8716 51.9507 42.0428 52.9784 43.0007C53.0394 43.0583 53.1139 43.0996 53.1958 43.1247C53.2182 43.1306 55.4433 43.7934 61.0837 45.4421C61.2237 45.4834 61.3697 45.4672 61.4978 45.3993C61.6259 45.3299 61.7197 45.2162 61.7614 45.0775C61.8463 44.7926 61.681 44.4915 61.392 44.4059C58.3745 43.5233 55.7785 42.7616 53.8854 42.2022L53.5995 42.1181L53.4475 41.8642C52.9665 41.0613 52.7326 39.3698 52.5509 37.8465L52.5435 37.7875C52.463 37.1041 52.3916 36.5151 52.2903 36.0886C51.7749 33.9483 50.57 32.769 50.214 32.4576L50.1589 32.4059C49.9013 32.1314 49.0895 31.5129 47.128 31.6915L46.9493 31.7063C45.8531 31.7993 44.3547 31.9277 41.9344 33.7742L34.4859 40.031C34.4695 40.0443 34.4561 40.0576 34.4427 40.0709C34.2178 40.3026 32.225 42.4354 32.7686 44.6244C33.0918 45.9262 34.2372 46.9107 36.1704 47.5498C36.2464 47.5749 38.062 48.1948 41.8212 51.2782C41.9463 51.3816 42.0789 51.4022 42.1668 51.4022V52.9166H42.1683Z" fill="white"/>
<path d="M42.7879 64.738C42.6077 64.738 42.4275 64.7144 42.2547 64.6686C41.72 64.5284 41.2717 64.1889 40.9932 63.7151C40.7147 63.2413 40.6402 62.6864 40.7817 62.1565C42.8177 54.5417 43.6309 51.048 43.9526 49.5085L38.4478 45.2059C37.931 44.8015 37.6361 44.1712 37.6584 43.5173C37.6837 42.8605 38.0263 42.2524 38.5744 41.8878L45.4316 37.3166C46.3789 36.6849 47.6687 36.9343 48.3092 37.8731C48.9481 38.8162 48.6949 40.0959 47.7462 40.7277L43.2496 43.7269L47.4989 47.048C48.0396 47.4716 48.333 48.1314 48.2824 48.8133C48.26 49.1173 47.9889 51.2531 44.7897 63.2133C44.5514 64.1092 43.7277 64.738 42.7879 64.738ZM46.5904 38.4812C46.4861 38.4812 46.3804 38.5107 46.2865 38.5727L39.4293 43.1454C39.2848 43.2413 39.194 43.4022 39.188 43.5749C39.1821 43.7447 39.2595 43.9114 39.3965 44.0177L45.6357 48.893L45.5463 49.3461C45.2976 50.6185 44.538 54.0251 42.2607 62.5447C42.2234 62.6849 42.2428 62.8295 42.3158 62.9535C42.3888 63.0775 42.5064 63.1675 42.6479 63.2044C42.6941 63.2162 42.7403 63.2221 42.7879 63.2221C43.0337 63.2221 43.2496 63.0568 43.3122 62.8207C46.5934 50.5535 46.7527 48.769 46.7572 48.6982C46.7706 48.5166 46.6946 48.3424 46.5517 48.2317L40.6566 43.6251L46.8927 39.4657C47.143 39.2989 47.21 38.9624 47.0417 38.7144C46.9389 38.5653 46.7661 38.4812 46.5904 38.4812Z" fill="white"/>
<path d="M58.3716 37.6472C55.1306 37.6472 52.4944 35.0347 52.4944 31.8229C52.4959 28.6125 55.1321 26 58.3716 26C61.6125 26 64.2488 28.6125 64.2488 31.8244C64.2488 35.0347 61.6125 37.6472 58.3716 37.6472ZM58.3716 27.5144C55.9736 27.5144 54.0225 29.448 54.0225 31.8244C54.0225 34.2007 55.9736 36.1343 58.3716 36.1343C60.7695 36.1343 62.7206 34.2007 62.7206 31.8244C62.7206 29.448 60.7695 27.5144 58.3716 27.5144Z" fill="white"/>
</g>
</svg>
