<?xml version="1.0" encoding="utf-8"?>
<!-- Generator: Adobe Illustrator 27.4.0, SVG Export Plug-In . SVG Version: 6.00 Build 0)  -->
<svg version="1.1" id="Camada_1" xmlns="http://www.w3.org/2000/svg" xmlns:xlink="http://www.w3.org/1999/xlink" x="0px" y="0px"
	 viewBox="0 0 94 94" style="enable-background:new 0 0 94 94;" xml:space="preserve">
<style type="text/css">
	.st0{fill:#FFFFFF;filter:url(#Adobe_OpacityMaskFilter);}
	.st1{mask:url(#mask0_377_1510_00000023962016209732553540000013723499380211561916_);}
	.st2{fill:#FFFFFF;filter:url(#Adobe_OpacityMaskFilter_00000114043982241984774770000016248899895878975362_);}
	.st3{mask:url(#mask1_377_1510_00000111169537808779251810000016125768251230799764_);}
	.st4{fill:#FFFFFF;}
</style>
<defs>
	<filter id="Adobe_OpacityMaskFilter" filterUnits="userSpaceOnUse" x="23" y="24" width="48.9" height="46.5">
		<feColorMatrix  type="matrix" values="1 0 0 0 0  0 1 0 0 0  0 0 1 0 0  0 0 0 1 0"/>
	</filter>
</defs>
<mask maskUnits="userSpaceOnUse" x="23" y="24" width="48.9" height="46.5" id="mask0_377_1510_00000023962016209732553540000013723499380211561916_">
	<rect class="st0" width="94" height="94"/>
</mask>
<g class="st1">
	<defs>
		
			<filter id="Adobe_OpacityMaskFilter_00000129905324785706000790000012604832684069441459_" filterUnits="userSpaceOnUse" x="23" y="24" width="48.9" height="46.5">
			<feColorMatrix  type="matrix" values="1 0 0 0 0  0 1 0 0 0  0 0 1 0 0  0 0 0 1 0"/>
		</filter>
	</defs>
	
		<mask maskUnits="userSpaceOnUse" x="23" y="24" width="48.9" height="46.5" id="mask1_377_1510_00000111169537808779251810000016125768251230799764_">
		
			<rect x="16" y="13" style="fill:#FFFFFF;filter:url(#Adobe_OpacityMaskFilter_00000129905324785706000790000012604832684069441459_);" width="64" height="64"/>
	</mask>
	<g class="st3">
		<path class="st4" d="M58.1,63.4h-7v2.1h7V63.4z"/>
		<path class="st4" d="M43.8,63.4h-7v2.1h7V63.4z"/>
		<path class="st4" d="M41,70.5h-1.3c-2.1,0-3.9-1.8-3.9-3.9v-21c0-0.6-0.3-1.1-0.7-1.4c-0.4-0.3-1-0.5-1.5-0.3
			c-1.3,0.3-2.5,0.4-3.6,0.4c-4.8,0-7-5.2-7-10c0-2.6,0.6-5,1.6-6.8c1.3-2.2,3.2-3.4,5.4-3.4c4.7,0,8.6,2.1,11.2,6.1
			c2.3,3.5,3.5,8.4,3.5,13.9c0,8,0.1,22.4,0.1,22.6C44.9,68.8,43.1,70.5,41,70.5z M34,41.7c0.9,0,1.7,0.3,2.4,0.8
			c0.9,0.8,1.5,1.8,1.5,3v21c0,1,0.8,1.8,1.8,1.8H41c1,0,1.8-0.8,1.8-1.8c0-0.1-0.1-14.5-0.1-22.6c0-5.1-1.1-9.6-3.2-12.8
			c-2.3-3.4-5.4-5.2-9.5-5.2c-3.2,0-4.9,4.1-4.9,8.1c0,3.8,1.5,7.9,4.9,7.9c1,0,2.1-0.1,3.2-0.4C33.4,41.8,33.7,41.7,34,41.7z"/>
		<path class="st4" d="M29.2,38.2c-0.8,0-1.5-0.7-1.5-1.5v-5.3c0-0.8,0.7-1.5,1.5-1.5c0.8,0,1.5,0.7,1.5,1.5v5.3
			C30.7,37.5,30.1,38.2,29.2,38.2z"/>
		<path class="st4" d="M55.2,70.5h-1.3c-2.1,0-3.9-1.8-3.9-3.9c0-0.2,0.1-14.5,0.1-22.6c0-5.5,1.2-10.3,3.5-13.9
			c2.6-4,6.5-6.1,11.2-6.1c2.2,0,4.1,1.2,5.4,3.4c1.1,1.8,1.6,4.3,1.6,6.8c0,2.5-0.6,4.9-1.6,6.7c-1.3,2.1-3.2,3.3-5.4,3.3
			c-1.1,0-2.4-0.1-3.6-0.4c-0.5-0.1-1.1,0-1.5,0.3c-0.4,0.3-0.7,0.9-0.7,1.4v21C59.1,68.8,57.4,70.5,55.2,70.5z M64.9,26.1
			c-4,0-7.2,1.8-9.5,5.2c-2.1,3.2-3.2,7.7-3.2,12.8c0,8.1-0.1,22.5-0.1,22.6c0,1,0.8,1.8,1.8,1.8h1.3c1,0,1.8-0.8,1.8-1.8v-21
			c0-1.2,0.5-2.3,1.5-3c0.9-0.7,2.1-1,3.3-0.8c1.1,0.3,2.2,0.4,3.2,0.4c1.5,0,2.7-0.8,3.6-2.3c0.8-1.4,1.3-3.5,1.3-5.7
			C69.8,30.2,68.1,26.1,64.9,26.1z"/>
		<path class="st4" d="M65.7,38.2c-0.8,0-1.5-0.7-1.5-1.5v-5.3c0-0.8,0.7-1.5,1.5-1.5c0.8,0,1.5,0.7,1.5,1.5v5.3
			C67.1,37.5,66.5,38.2,65.7,38.2z"/>
		<path class="st4" d="M36.4,64.1h7.4v5h-3.7h-3.3L36.4,64.1z"/>
		<path class="st4" d="M50.9,64.1h7.4v5h-3.7h-3.3L50.9,64.1z"/>
	</g>
</g>
</svg>
