<?xml version="1.0" encoding="utf-8"?>
<!-- Generator: Adobe Illustrator 27.4.0, SVG Export Plug-In . SVG Version: 6.00 Build 0)  -->
<svg version="1.1" id="Camada_1" xmlns="http://www.w3.org/2000/svg" xmlns:xlink="http://www.w3.org/1999/xlink" x="0px" y="0px"
	 viewBox="0 0 94 94" style="enable-background:new 0 0 94 94;" xml:space="preserve">
<style type="text/css">
	.st0{fill:#FFFFFF;filter:url(#Adobe_OpacityMaskFilter);}
	.st1{mask:url(#mask0_00000156585842979615360200000012768519623014576040_);}
	.st2{fill:#FFFFFF;}
</style>
<defs>
	<filter id="Adobe_OpacityMaskFilter" filterUnits="userSpaceOnUse" x="23.7" y="28.9" width="44" height="42">
		<feColorMatrix  type="matrix" values="1 0 0 0 0  0 1 0 0 0  0 0 1 0 0  0 0 0 1 0"/>
	</filter>
</defs>
<mask maskUnits="userSpaceOnUse" x="23.7" y="28.9" width="44" height="42" id="mask0_00000156585842979615360200000012768519623014576040_">
	<rect x="-1.3" y="2.9" class="st0" width="94" height="94"/>
</mask>
<g class="st1">
	<path class="st2" d="M40.5,68.7c1.2-1.2,1.2-3.2,0-4.4c-1.2-1.2-3.2-1.2-4.4,0c-1.2,1.2-1.2,3.2,0,4.4
		C37.3,69.9,39.3,69.9,40.5,68.7z"/>
	<path class="st2" d="M38.3,70.9c-0.1,0-0.3,0-0.4,0c-2.1-0.2-3.8-1.9-4-4c-0.1-1.3,0.3-2.7,1.3-3.6c0.9-0.9,2.2-1.4,3.6-1.3
		c2.1,0.2,3.8,1.9,4,4c0.1,1.3-0.3,2.7-1.3,3.6C40.6,70.5,39.5,70.9,38.3,70.9z M38.3,64.7c-0.5,0-0.9,0.2-1.2,0.5
		c-0.4,0.4-0.6,0.9-0.5,1.4c0.1,0.8,0.8,1.5,1.6,1.6c0.5,0.1,1.1-0.1,1.4-0.5c0.4-0.4,0.6-0.9,0.5-1.4c-0.1-0.8-0.8-1.5-1.6-1.6
		C38.4,64.7,38.4,64.7,38.3,64.7z"/>
	<path class="st2" d="M61.7,68.7c1.2-1.2,1.2-3.2,0-4.4c-1.2-1.2-3.2-1.2-4.4,0c-1.2,1.2-1.2,3.2,0,4.4
		C58.5,69.9,60.5,69.9,61.7,68.7z"/>
	<path class="st2" d="M59.5,70.9c-0.1,0-0.3,0-0.4,0c-2.1-0.2-3.8-1.9-4-4c-0.1-1.3,0.3-2.7,1.3-3.6c0.9-0.9,2.2-1.4,3.6-1.3
		c2.1,0.2,3.8,1.9,4,4c0.1,1.3-0.3,2.7-1.3,3.6C61.8,70.5,60.7,70.9,59.5,70.9z M59.5,64.7c-0.5,0-0.9,0.2-1.2,0.5
		c-0.4,0.4-0.6,0.9-0.5,1.4c0.1,0.8,0.8,1.5,1.6,1.6c0.5,0.1,1.1-0.1,1.4-0.5c0.4-0.4,0.6-0.9,0.5-1.4c-0.1-0.8-0.8-1.5-1.6-1.6
		C59.6,64.7,59.6,64.7,59.5,64.7z"/>
	<path class="st2" d="M63.5,60.5H37.6c-1.7,0-3.1-1.2-3.5-2.9l-5.2-25.6c-0.2-1-1.1-1.8-2.2-1.8h-3v-1.3h3c1.7,0,3.1,1.2,3.5,2.9
		l5.2,25.6c0.2,1,1.1,1.8,2.2,1.8h25.9L63.5,60.5L63.5,60.5z"/>
	<path class="st2" d="M62.1,55.2H34.5v-1.3h27.6c0.8,0,1.4-0.5,1.5-1.3l2.8-16c0.1-0.5,0-0.9-0.3-1.3c-0.3-0.3-0.7-0.6-1.2-0.6H30.3
		v-1.3h34.6c0.9,0,1.7,0.4,2.2,1c0.5,0.7,0.8,1.5,0.6,2.4l-2.8,16C64.7,54.2,63.5,55.2,62.1,55.2z"/>
	<path class="st2" d="M66.2,40H34.3v1.3h31.8V40z"/>
	<path class="st2" d="M65.3,47.2H35.6v1.3h29.6V47.2z"/>
	<path class="st2" d="M64.3,48.5H35.6L34,40h31.9L64.3,48.5z"/>
</g>
</svg>
